<?xml version="1.0" encoding="UTF-8" standalone="no"?>
<!DOCTYPE svg PUBLIC "-//W3C//DTD SVG 1.1//EN"
 "http://www.w3.org/Graphics/SVG/1.1/DTD/svg11.dtd">
<!-- Generated by graphviz version 2.44.0 (0)
 -->
<!-- Pages: 1 -->
<svg width="1887pt" height="548pt"
 viewBox="0.00 0.00 1887.34 548.00" xmlns="http://www.w3.org/2000/svg" xmlns:xlink="http://www.w3.org/1999/xlink">
<g id="graph0" class="graph" transform="scale(1 1) rotate(0) translate(4 544)">
<polygon fill="white" stroke="transparent" points="-4,4 -4,-544 1883.34,-544 1883.34,4 -4,4"/>
<!-- [root] aws_eip.public_http (expand) -->
<g id="node1" class="node">
<title>[root] aws_eip.public_http (expand)</title>
<polygon fill="none" stroke="black" points="1180,-396 1044,-396 1044,-360 1180,-360 1180,-396"/>
<text text-anchor="middle" x="1112" y="-374.3" font-family="Times-Roman" font-size="14.00">aws_eip.public_http</text>
</g>
<!-- [root] aws_instance.http (expand) -->
<g id="node3" class="node">
<title>[root] aws_instance.http (expand)</title>
<polygon fill="none" stroke="black" points="903.5,-324 778.5,-324 778.5,-288 903.5,-288 903.5,-324"/>
<text text-anchor="middle" x="841" y="-302.3" font-family="Times-Roman" font-size="14.00">aws_instance.http</text>
</g>
<!-- [root] aws_eip.public_http (expand)&#45;&gt;[root] aws_instance.http (expand) -->
<g id="edge1" class="edge">
<title>[root] aws_eip.public_http (expand)&#45;&gt;[root] aws_instance.http (expand)</title>
<path fill="none" stroke="black" d="M1046.05,-359.97C1005.87,-349.59 954.5,-336.32 913.23,-325.66"/>
<polygon fill="black" stroke="black" points="914.07,-322.26 903.51,-323.15 912.32,-329.04 914.07,-322.26"/>
</g>
<!-- [root] aws_instance.db (expand) -->
<g id="node2" class="node">
<title>[root] aws_instance.db (expand)</title>
<polygon fill="none" stroke="black" points="480.5,-324 363.5,-324 363.5,-288 480.5,-288 480.5,-324"/>
<text text-anchor="middle" x="422" y="-302.3" font-family="Times-Roman" font-size="14.00">aws_instance.db</text>
</g>
<!-- [root] aws_key_pair.user_key (expand) -->
<g id="node5" class="node">
<title>[root] aws_key_pair.user_key (expand)</title>
<polygon fill="none" stroke="black" points="537.5,-252 380.5,-252 380.5,-216 537.5,-216 537.5,-252"/>
<text text-anchor="middle" x="459" y="-230.3" font-family="Times-Roman" font-size="14.00">aws_key_pair.user_key</text>
</g>
<!-- [root] aws_instance.db (expand)&#45;&gt;[root] aws_key_pair.user_key (expand) -->
<g id="edge2" class="edge">
<title>[root] aws_instance.db (expand)&#45;&gt;[root] aws_key_pair.user_key (expand)</title>
<path fill="none" stroke="black" d="M431.15,-287.7C435.4,-279.64 440.56,-269.89 445.27,-260.98"/>
<polygon fill="black" stroke="black" points="448.38,-262.58 449.96,-252.1 442.19,-259.31 448.38,-262.58"/>
</g>
<!-- [root] aws_security_group.administration (expand) -->
<g id="node17" class="node">
<title>[root] aws_security_group.administration (expand)</title>
<polygon fill="none" stroke="black" points="780.5,-252 555.5,-252 555.5,-216 780.5,-216 780.5,-252"/>
<text text-anchor="middle" x="668" y="-230.3" font-family="Times-Roman" font-size="14.00">aws_security_group.administration</text>
</g>
<!-- [root] aws_instance.db (expand)&#45;&gt;[root] aws_security_group.administration (expand) -->
<g id="edge3" class="edge">
<title>[root] aws_instance.db (expand)&#45;&gt;[root] aws_security_group.administration (expand)</title>
<path fill="none" stroke="black" d="M480.61,-288.32C515.96,-278.26 561.2,-265.39 598.37,-254.81"/>
<polygon fill="black" stroke="black" points="599.47,-258.14 608.13,-252.04 597.55,-251.41 599.47,-258.14"/>
</g>
<!-- [root] aws_security_group.db (expand) -->
<g id="node18" class="node">
<title>[root] aws_security_group.db (expand)</title>
<polygon fill="none" stroke="black" points="297.5,-180 142.5,-180 142.5,-144 297.5,-144 297.5,-180"/>
<text text-anchor="middle" x="220" y="-158.3" font-family="Times-Roman" font-size="14.00">aws_security_group.db</text>
</g>
<!-- [root] aws_instance.db (expand)&#45;&gt;[root] aws_security_group.db (expand) -->
<g id="edge4" class="edge">
<title>[root] aws_instance.db (expand)&#45;&gt;[root] aws_security_group.db (expand)</title>
<path fill="none" stroke="black" d="M363.3,-298.62C306.45,-291.09 226.12,-276.4 207,-252 193.3,-234.52 198.84,-209 206.46,-189.76"/>
<polygon fill="black" stroke="black" points="209.77,-190.91 210.55,-180.35 203.35,-188.13 209.77,-190.91"/>
</g>
<!-- [root] aws_subnet.db (expand) -->
<g id="node20" class="node">
<title>[root] aws_subnet.db (expand)</title>
<polygon fill="none" stroke="black" points="1168.5,-252 1061.5,-252 1061.5,-216 1168.5,-216 1168.5,-252"/>
<text text-anchor="middle" x="1115" y="-230.3" font-family="Times-Roman" font-size="14.00">aws_subnet.db</text>
</g>
<!-- [root] aws_instance.db (expand)&#45;&gt;[root] aws_subnet.db (expand) -->
<g id="edge5" class="edge">
<title>[root] aws_instance.db (expand)&#45;&gt;[root] aws_subnet.db (expand)</title>
<path fill="none" stroke="black" d="M480.67,-298.73C512.92,-295.36 553.65,-291.26 590,-288 791.83,-269.93 847.26,-286.43 1051.06,-251.96"/>
<polygon fill="black" stroke="black" points="1051.92,-255.36 1061.19,-250.23 1050.74,-248.46 1051.92,-255.36"/>
</g>
<!-- [root] data.aws_ami.ubuntu (expand) -->
<g id="node23" class="node">
<title>[root] data.aws_ami.ubuntu (expand)</title>
<polygon fill="none" stroke="black" points="362,-252 216,-252 216,-216 362,-216 362,-252"/>
<text text-anchor="middle" x="289" y="-230.3" font-family="Times-Roman" font-size="14.00">data.aws_ami.ubuntu</text>
</g>
<!-- [root] aws_instance.db (expand)&#45;&gt;[root] data.aws_ami.ubuntu (expand) -->
<g id="edge6" class="edge">
<title>[root] aws_instance.db (expand)&#45;&gt;[root] data.aws_ami.ubuntu (expand)</title>
<path fill="none" stroke="black" d="M389.46,-287.88C371.75,-278.55 349.65,-266.92 330.68,-256.94"/>
<polygon fill="black" stroke="black" points="332.14,-253.75 321.66,-252.19 328.88,-259.94 332.14,-253.75"/>
</g>
<!-- [root] var.db_instance_names -->
<g id="node25" class="node">
<title>[root] var.db_instance_names</title>
<polygon fill="none" stroke="black" points="154,-252 0,-252 0,-216 160,-216 160,-246 154,-252"/>
<polyline fill="none" stroke="black" points="154,-252 154,-246 "/>
<polyline fill="none" stroke="black" points="160,-246 154,-246 "/>
<text text-anchor="middle" x="80" y="-230.3" font-family="Times-Roman" font-size="14.00">var.db_instance_names</text>
</g>
<!-- [root] aws_instance.db (expand)&#45;&gt;[root] var.db_instance_names -->
<g id="edge7" class="edge">
<title>[root] aws_instance.db (expand)&#45;&gt;[root] var.db_instance_names</title>
<path fill="none" stroke="black" d="M363.21,-292.97C310.11,-282.1 231.17,-265.94 170.11,-253.44"/>
<polygon fill="black" stroke="black" points="170.59,-249.97 160.09,-251.39 169.18,-256.83 170.59,-249.97"/>
</g>
<!-- [root] aws_instance.http (expand)&#45;&gt;[root] aws_key_pair.user_key (expand) -->
<g id="edge8" class="edge">
<title>[root] aws_instance.http (expand)&#45;&gt;[root] aws_key_pair.user_key (expand)</title>
<path fill="none" stroke="black" d="M778.34,-289.72C775.52,-289.12 772.73,-288.55 770,-288 674.21,-268.86 646.96,-269.6 547.55,-252.24"/>
<polygon fill="black" stroke="black" points="548.15,-248.79 537.7,-250.5 546.94,-255.69 548.15,-248.79"/>
</g>
<!-- [root] aws_instance.http (expand)&#45;&gt;[root] aws_security_group.administration (expand) -->
<g id="edge9" class="edge">
<title>[root] aws_instance.http (expand)&#45;&gt;[root] aws_security_group.administration (expand)</title>
<path fill="none" stroke="black" d="M798.68,-287.88C774.82,-278.22 744.83,-266.09 719.6,-255.88"/>
<polygon fill="black" stroke="black" points="720.77,-252.57 710.18,-252.07 718.14,-259.06 720.77,-252.57"/>
</g>
<!-- [root] aws_security_group.web (expand) -->
<g id="node19" class="node">
<title>[root] aws_security_group.web (expand)</title>
<polygon fill="none" stroke="black" points="1002.5,-180 837.5,-180 837.5,-144 1002.5,-144 1002.5,-180"/>
<text text-anchor="middle" x="920" y="-158.3" font-family="Times-Roman" font-size="14.00">aws_security_group.web</text>
</g>
<!-- [root] aws_instance.http (expand)&#45;&gt;[root] aws_security_group.web (expand) -->
<g id="edge10" class="edge">
<title>[root] aws_instance.http (expand)&#45;&gt;[root] aws_security_group.web (expand)</title>
<path fill="none" stroke="black" d="M843.12,-287.9C846.03,-269.18 852.51,-238.79 866,-216 872.31,-205.33 881.31,-195.33 890.15,-186.95"/>
<polygon fill="black" stroke="black" points="892.74,-189.33 897.81,-180.03 888.04,-184.13 892.74,-189.33"/>
</g>
<!-- [root] aws_subnet.http (expand) -->
<g id="node21" class="node">
<title>[root] aws_subnet.http (expand)</title>
<polygon fill="none" stroke="black" points="1476,-252 1360,-252 1360,-216 1476,-216 1476,-252"/>
<text text-anchor="middle" x="1418" y="-230.3" font-family="Times-Roman" font-size="14.00">aws_subnet.http</text>
</g>
<!-- [root] aws_instance.http (expand)&#45;&gt;[root] aws_subnet.http (expand) -->
<g id="edge11" class="edge">
<title>[root] aws_instance.http (expand)&#45;&gt;[root] aws_subnet.http (expand)</title>
<path fill="none" stroke="black" d="M903.72,-289.61C906.85,-289.02 909.96,-288.48 913,-288 1102.72,-257.98 1156.56,-283.26 1349.75,-252.04"/>
<polygon fill="black" stroke="black" points="1350.36,-255.49 1359.66,-250.41 1349.22,-248.58 1350.36,-255.49"/>
</g>
<!-- [root] aws_instance.http (expand)&#45;&gt;[root] data.aws_ami.ubuntu (expand) -->
<g id="edge12" class="edge">
<title>[root] aws_instance.http (expand)&#45;&gt;[root] data.aws_ami.ubuntu (expand)</title>
<path fill="none" stroke="black" d="M778.38,-289.49C775.55,-288.95 772.75,-288.45 770,-288 597.55,-259.73 548.92,-277.43 372.39,-252.1"/>
<polygon fill="black" stroke="black" points="372.64,-248.6 362.24,-250.62 371.63,-255.53 372.64,-248.6"/>
</g>
<!-- [root] var.http_instance_names -->
<g id="node26" class="node">
<title>[root] var.http_instance_names</title>
<polygon fill="none" stroke="black" points="1037,-252 875,-252 875,-216 1043,-216 1043,-246 1037,-252"/>
<polyline fill="none" stroke="black" points="1037,-252 1037,-246 "/>
<polyline fill="none" stroke="black" points="1043,-246 1037,-246 "/>
<text text-anchor="middle" x="959" y="-230.3" font-family="Times-Roman" font-size="14.00">var.http_instance_names</text>
</g>
<!-- [root] aws_instance.http (expand)&#45;&gt;[root] var.http_instance_names -->
<g id="edge13" class="edge">
<title>[root] aws_instance.http (expand)&#45;&gt;[root] var.http_instance_names</title>
<path fill="none" stroke="black" d="M869.87,-287.88C885.29,-278.72 904.48,-267.34 921.1,-257.48"/>
<polygon fill="black" stroke="black" points="923.21,-260.3 930.02,-252.19 919.64,-254.28 923.21,-260.3"/>
</g>
<!-- [root] aws_internet_gateway.gw (expand) -->
<g id="node4" class="node">
<title>[root] aws_internet_gateway.gw (expand)</title>
<polygon fill="none" stroke="black" points="1345.5,-180 1174.5,-180 1174.5,-144 1345.5,-144 1345.5,-180"/>
<text text-anchor="middle" x="1260" y="-158.3" font-family="Times-Roman" font-size="14.00">aws_internet_gateway.gw</text>
</g>
<!-- [root] aws_vpc.terraform (expand) -->
<g id="node22" class="node">
<title>[root] aws_vpc.terraform (expand)</title>
<polygon fill="none" stroke="black" points="873,-108 745,-108 745,-72 873,-72 873,-108"/>
<text text-anchor="middle" x="809" y="-86.3" font-family="Times-Roman" font-size="14.00">aws_vpc.terraform</text>
</g>
<!-- [root] aws_internet_gateway.gw (expand)&#45;&gt;[root] aws_vpc.terraform (expand) -->
<g id="edge14" class="edge">
<title>[root] aws_internet_gateway.gw (expand)&#45;&gt;[root] aws_vpc.terraform (expand)</title>
<path fill="none" stroke="black" d="M1174.46,-145.41C1171.61,-144.93 1168.78,-144.46 1166,-144 1068.42,-127.94 955.47,-111.54 883.19,-101.32"/>
<polygon fill="black" stroke="black" points="883.65,-97.85 873.26,-99.92 882.68,-104.78 883.65,-97.85"/>
</g>
<!-- [root] provider[&quot;registry.terraform.io/hashicorp/aws&quot;] -->
<g id="node24" class="node">
<title>[root] provider[&quot;registry.terraform.io/hashicorp/aws&quot;]</title>
<polygon fill="none" stroke="black" points="459,-36 190.71,-18 459,0 727.29,-18 459,-36"/>
<text text-anchor="middle" x="459" y="-14.3" font-family="Times-Roman" font-size="14.00">provider[&quot;registry.terraform.io/hashicorp/aws&quot;]</text>
</g>
<!-- [root] aws_key_pair.user_key (expand)&#45;&gt;[root] provider[&quot;registry.terraform.io/hashicorp/aws&quot;] -->
<g id="edge15" class="edge">
<title>[root] aws_key_pair.user_key (expand)&#45;&gt;[root] provider[&quot;registry.terraform.io/hashicorp/aws&quot;]</title>
<path fill="none" stroke="black" d="M459,-215.85C459,-178.83 459,-91.18 459,-46.39"/>
<polygon fill="black" stroke="black" points="462.5,-46.23 459,-36.23 455.5,-46.23 462.5,-46.23"/>
</g>
<!-- [root] aws_lb.db (expand) -->
<g id="node6" class="node">
<title>[root] aws_lb.db (expand)</title>
<polygon fill="none" stroke="black" points="998.5,-324 921.5,-324 921.5,-288 998.5,-288 998.5,-324"/>
<text text-anchor="middle" x="960" y="-302.3" font-family="Times-Roman" font-size="14.00">aws_lb.db</text>
</g>
<!-- [root] aws_lb.db (expand)&#45;&gt;[root] aws_subnet.db (expand) -->
<g id="edge16" class="edge">
<title>[root] aws_lb.db (expand)&#45;&gt;[root] aws_subnet.db (expand)</title>
<path fill="none" stroke="black" d="M997.92,-287.88C1019.01,-278.35 1045.46,-266.41 1067.87,-256.28"/>
<polygon fill="black" stroke="black" points="1069.53,-259.37 1077.21,-252.07 1066.65,-252.99 1069.53,-259.37"/>
</g>
<!-- [root] aws_lb.http (expand) -->
<g id="node7" class="node">
<title>[root] aws_lb.http (expand)</title>
<polygon fill="none" stroke="black" points="1754,-324 1668,-324 1668,-288 1754,-288 1754,-324"/>
<text text-anchor="middle" x="1711" y="-302.3" font-family="Times-Roman" font-size="14.00">aws_lb.http</text>
</g>
<!-- [root] aws_lb.http (expand)&#45;&gt;[root] aws_subnet.http (expand) -->
<g id="edge17" class="edge">
<title>[root] aws_lb.http (expand)&#45;&gt;[root] aws_subnet.http (expand)</title>
<path fill="none" stroke="black" d="M1667.97,-290.57C1664.94,-289.66 1661.93,-288.8 1659,-288 1601.31,-272.27 1534.89,-257.94 1486.41,-248.15"/>
<polygon fill="black" stroke="black" points="1486.84,-244.67 1476.34,-246.14 1485.46,-251.53 1486.84,-244.67"/>
</g>
<!-- [root] aws_lb_listener.db (expand) -->
<g id="node8" class="node">
<title>[root] aws_lb_listener.db (expand)</title>
<polygon fill="none" stroke="black" points="1024,-396 896,-396 896,-360 1024,-360 1024,-396"/>
<text text-anchor="middle" x="960" y="-374.3" font-family="Times-Roman" font-size="14.00">aws_lb_listener.db</text>
</g>
<!-- [root] aws_lb_listener.db (expand)&#45;&gt;[root] aws_lb.db (expand) -->
<g id="edge18" class="edge">
<title>[root] aws_lb_listener.db (expand)&#45;&gt;[root] aws_lb.db (expand)</title>
<path fill="none" stroke="black" d="M960,-359.7C960,-351.98 960,-342.71 960,-334.11"/>
<polygon fill="black" stroke="black" points="963.5,-334.1 960,-324.1 956.5,-334.1 963.5,-334.1"/>
</g>
<!-- [root] aws_lb_target_group.db (expand) -->
<g id="node10" class="node">
<title>[root] aws_lb_target_group.db (expand)</title>
<polygon fill="none" stroke="black" points="760.5,-324 599.5,-324 599.5,-288 760.5,-288 760.5,-324"/>
<text text-anchor="middle" x="680" y="-302.3" font-family="Times-Roman" font-size="14.00">aws_lb_target_group.db</text>
</g>
<!-- [root] aws_lb_listener.db (expand)&#45;&gt;[root] aws_lb_target_group.db (expand) -->
<g id="edge19" class="edge">
<title>[root] aws_lb_listener.db (expand)&#45;&gt;[root] aws_lb_target_group.db (expand)</title>
<path fill="none" stroke="black" d="M895.76,-360.94C854.87,-350.72 801.64,-337.41 758.28,-326.57"/>
<polygon fill="black" stroke="black" points="758.89,-323.11 748.34,-324.08 757.19,-329.91 758.89,-323.11"/>
</g>
<!-- [root] aws_lb_listener.http (expand) -->
<g id="node9" class="node">
<title>[root] aws_lb_listener.http (expand)</title>
<polygon fill="none" stroke="black" points="1682,-396 1546,-396 1546,-360 1682,-360 1682,-396"/>
<text text-anchor="middle" x="1614" y="-374.3" font-family="Times-Roman" font-size="14.00">aws_lb_listener.http</text>
</g>
<!-- [root] aws_lb_listener.http (expand)&#45;&gt;[root] aws_lb.http (expand) -->
<g id="edge20" class="edge">
<title>[root] aws_lb_listener.http (expand)&#45;&gt;[root] aws_lb.http (expand)</title>
<path fill="none" stroke="black" d="M1637.98,-359.7C1650.31,-350.8 1665.52,-339.82 1678.85,-330.2"/>
<polygon fill="black" stroke="black" points="1681.24,-332.79 1687.3,-324.1 1677.14,-327.12 1681.24,-332.79"/>
</g>
<!-- [root] aws_lb_target_group.http (expand) -->
<g id="node11" class="node">
<title>[root] aws_lb_target_group.http (expand)</title>
<polygon fill="none" stroke="black" points="1650,-324 1480,-324 1480,-288 1650,-288 1650,-324"/>
<text text-anchor="middle" x="1565" y="-302.3" font-family="Times-Roman" font-size="14.00">aws_lb_target_group.http</text>
</g>
<!-- [root] aws_lb_listener.http (expand)&#45;&gt;[root] aws_lb_target_group.http (expand) -->
<g id="edge21" class="edge">
<title>[root] aws_lb_listener.http (expand)&#45;&gt;[root] aws_lb_target_group.http (expand)</title>
<path fill="none" stroke="black" d="M1601.89,-359.7C1596.13,-351.47 1589.14,-341.48 1582.79,-332.42"/>
<polygon fill="black" stroke="black" points="1585.58,-330.29 1576.97,-324.1 1579.84,-334.3 1585.58,-330.29"/>
</g>
<!-- [root] aws_lb_target_group.db (expand)&#45;&gt;[root] aws_vpc.terraform (expand) -->
<g id="edge22" class="edge">
<title>[root] aws_lb_target_group.db (expand)&#45;&gt;[root] aws_vpc.terraform (expand)</title>
<path fill="none" stroke="black" d="M741.92,-287.93C760.14,-279.92 778.3,-268.39 790,-252 818.24,-212.41 817.02,-152.91 813.23,-118.42"/>
<polygon fill="black" stroke="black" points="816.66,-117.64 811.95,-108.15 809.72,-118.51 816.66,-117.64"/>
</g>
<!-- [root] aws_lb_target_group.http (expand)&#45;&gt;[root] aws_vpc.terraform (expand) -->
<g id="edge23" class="edge">
<title>[root] aws_lb_target_group.http (expand)&#45;&gt;[root] aws_vpc.terraform (expand)</title>
<path fill="none" stroke="black" d="M1562.67,-287.77C1557.06,-253.74 1539.41,-178.26 1490,-144 1441.05,-110.06 1049.46,-96.75 883.22,-92.59"/>
<polygon fill="black" stroke="black" points="883.16,-89.09 873.07,-92.34 882.99,-96.09 883.16,-89.09"/>
</g>
<!-- [root] aws_lb_target_group_attachment.db (expand) -->
<g id="node12" class="node">
<title>[root] aws_lb_target_group_attachment.db (expand)</title>
<polygon fill="none" stroke="black" points="798.5,-396 561.5,-396 561.5,-360 798.5,-360 798.5,-396"/>
<text text-anchor="middle" x="680" y="-374.3" font-family="Times-Roman" font-size="14.00">aws_lb_target_group_attachment.db</text>
</g>
<!-- [root] aws_lb_target_group_attachment.db (expand)&#45;&gt;[root] aws_instance.db (expand) -->
<g id="edge24" class="edge">
<title>[root] aws_lb_target_group_attachment.db (expand)&#45;&gt;[root] aws_instance.db (expand)</title>
<path fill="none" stroke="black" d="M617.22,-359.97C578.85,-349.56 529.77,-336.24 490.42,-325.56"/>
<polygon fill="black" stroke="black" points="491.2,-322.15 480.63,-322.91 489.37,-328.9 491.2,-322.15"/>
</g>
<!-- [root] aws_lb_target_group_attachment.db (expand)&#45;&gt;[root] aws_lb_target_group.db (expand) -->
<g id="edge25" class="edge">
<title>[root] aws_lb_target_group_attachment.db (expand)&#45;&gt;[root] aws_lb_target_group.db (expand)</title>
<path fill="none" stroke="black" d="M680,-359.7C680,-351.98 680,-342.71 680,-334.11"/>
<polygon fill="black" stroke="black" points="683.5,-334.1 680,-324.1 676.5,-334.1 683.5,-334.1"/>
</g>
<!-- [root] aws_lb_target_group_attachment.http (expand) -->
<g id="node13" class="node">
<title>[root] aws_lb_target_group_attachment.http (expand)</title>
<polygon fill="none" stroke="black" points="1527.5,-396 1282.5,-396 1282.5,-360 1527.5,-360 1527.5,-396"/>
<text text-anchor="middle" x="1405" y="-374.3" font-family="Times-Roman" font-size="14.00">aws_lb_target_group_attachment.http</text>
</g>
<!-- [root] aws_lb_target_group_attachment.http (expand)&#45;&gt;[root] aws_instance.http (expand) -->
<g id="edge26" class="edge">
<title>[root] aws_lb_target_group_attachment.http (expand)&#45;&gt;[root] aws_instance.http (expand)</title>
<path fill="none" stroke="black" d="M1282.34,-368.06C1184.98,-359.96 1045.31,-346.13 913.98,-324.04"/>
<polygon fill="black" stroke="black" points="914.18,-320.52 903.73,-322.3 913.01,-327.43 914.18,-320.52"/>
</g>
<!-- [root] aws_lb_target_group_attachment.http (expand)&#45;&gt;[root] aws_lb_target_group.http (expand) -->
<g id="edge27" class="edge">
<title>[root] aws_lb_target_group_attachment.http (expand)&#45;&gt;[root] aws_lb_target_group.http (expand)</title>
<path fill="none" stroke="black" d="M1444.14,-359.88C1466.01,-350.31 1493.46,-338.3 1516.66,-328.15"/>
<polygon fill="black" stroke="black" points="1518.23,-331.28 1525.99,-324.07 1515.42,-324.87 1518.23,-331.28"/>
</g>
<!-- [root] aws_route_table.public (expand) -->
<g id="node14" class="node">
<title>[root] aws_route_table.public (expand)</title>
<polygon fill="none" stroke="black" points="1341.5,-252 1186.5,-252 1186.5,-216 1341.5,-216 1341.5,-252"/>
<text text-anchor="middle" x="1264" y="-230.3" font-family="Times-Roman" font-size="14.00">aws_route_table.public</text>
</g>
<!-- [root] aws_route_table.public (expand)&#45;&gt;[root] aws_internet_gateway.gw (expand) -->
<g id="edge28" class="edge">
<title>[root] aws_route_table.public (expand)&#45;&gt;[root] aws_internet_gateway.gw (expand)</title>
<path fill="none" stroke="black" d="M1263.01,-215.7C1262.57,-207.98 1262.04,-198.71 1261.55,-190.11"/>
<polygon fill="black" stroke="black" points="1265.04,-189.89 1260.98,-180.1 1258.05,-190.29 1265.04,-189.89"/>
</g>
<!-- [root] aws_route_table_association.db (expand) -->
<g id="node15" class="node">
<title>[root] aws_route_table_association.db (expand)</title>
<polygon fill="none" stroke="black" points="1225.5,-324 1016.5,-324 1016.5,-288 1225.5,-288 1225.5,-324"/>
<text text-anchor="middle" x="1121" y="-302.3" font-family="Times-Roman" font-size="14.00">aws_route_table_association.db</text>
</g>
<!-- [root] aws_route_table_association.db (expand)&#45;&gt;[root] aws_route_table.public (expand) -->
<g id="edge29" class="edge">
<title>[root] aws_route_table_association.db (expand)&#45;&gt;[root] aws_route_table.public (expand)</title>
<path fill="none" stroke="black" d="M1155.98,-287.88C1175.2,-278.47 1199.23,-266.71 1219.74,-256.67"/>
<polygon fill="black" stroke="black" points="1221.44,-259.73 1228.88,-252.19 1218.36,-253.44 1221.44,-259.73"/>
</g>
<!-- [root] aws_route_table_association.db (expand)&#45;&gt;[root] aws_subnet.db (expand) -->
<g id="edge30" class="edge">
<title>[root] aws_route_table_association.db (expand)&#45;&gt;[root] aws_subnet.db (expand)</title>
<path fill="none" stroke="black" d="M1119.52,-287.7C1118.86,-279.98 1118.06,-270.71 1117.32,-262.11"/>
<polygon fill="black" stroke="black" points="1120.81,-261.77 1116.47,-252.1 1113.83,-262.37 1120.81,-261.77"/>
</g>
<!-- [root] aws_route_table_association.http (expand) -->
<g id="node16" class="node">
<title>[root] aws_route_table_association.http (expand)</title>
<polygon fill="none" stroke="black" points="1462,-324 1244,-324 1244,-288 1462,-288 1462,-324"/>
<text text-anchor="middle" x="1353" y="-302.3" font-family="Times-Roman" font-size="14.00">aws_route_table_association.http</text>
</g>
<!-- [root] aws_route_table_association.http (expand)&#45;&gt;[root] aws_route_table.public (expand) -->
<g id="edge31" class="edge">
<title>[root] aws_route_table_association.http (expand)&#45;&gt;[root] aws_route_table.public (expand)</title>
<path fill="none" stroke="black" d="M1331,-287.7C1319.79,-278.88 1306,-268.03 1293.85,-258.47"/>
<polygon fill="black" stroke="black" points="1295.77,-255.54 1285.75,-252.1 1291.44,-261.04 1295.77,-255.54"/>
</g>
<!-- [root] aws_route_table_association.http (expand)&#45;&gt;[root] aws_subnet.http (expand) -->
<g id="edge32" class="edge">
<title>[root] aws_route_table_association.http (expand)&#45;&gt;[root] aws_subnet.http (expand)</title>
<path fill="none" stroke="black" d="M1369.07,-287.7C1376.94,-279.22 1386.56,-268.86 1395.17,-259.58"/>
<polygon fill="black" stroke="black" points="1397.88,-261.81 1402.12,-252.1 1392.75,-257.05 1397.88,-261.81"/>
</g>
<!-- [root] aws_security_group.administration (expand)&#45;&gt;[root] aws_vpc.terraform (expand) -->
<g id="edge33" class="edge">
<title>[root] aws_security_group.administration (expand)&#45;&gt;[root] aws_vpc.terraform (expand)</title>
<path fill="none" stroke="black" d="M685.01,-215.87C709.89,-190.82 756.32,-144.05 784.77,-115.41"/>
<polygon fill="black" stroke="black" points="787.37,-117.75 791.93,-108.19 782.4,-112.82 787.37,-117.75"/>
</g>
<!-- [root] aws_security_group.db (expand)&#45;&gt;[root] aws_vpc.terraform (expand) -->
<g id="edge34" class="edge">
<title>[root] aws_security_group.db (expand)&#45;&gt;[root] aws_vpc.terraform (expand)</title>
<path fill="none" stroke="black" d="M297.61,-151.78C411.51,-138.24 622.53,-113.16 734.58,-99.84"/>
<polygon fill="black" stroke="black" points="735.27,-103.29 744.78,-98.63 734.44,-96.34 735.27,-103.29"/>
</g>
<!-- [root] aws_security_group.web (expand)&#45;&gt;[root] aws_vpc.terraform (expand) -->
<g id="edge35" class="edge">
<title>[root] aws_security_group.web (expand)&#45;&gt;[root] aws_vpc.terraform (expand)</title>
<path fill="none" stroke="black" d="M892.85,-143.88C878.47,-134.81 860.62,-123.55 845.09,-113.76"/>
<polygon fill="black" stroke="black" points="846.58,-110.56 836.26,-108.19 842.85,-116.48 846.58,-110.56"/>
</g>
<!-- [root] aws_subnet.db (expand)&#45;&gt;[root] aws_internet_gateway.gw (expand) -->
<g id="edge36" class="edge">
<title>[root] aws_subnet.db (expand)&#45;&gt;[root] aws_internet_gateway.gw (expand)</title>
<path fill="none" stroke="black" d="M1150.47,-215.88C1170.12,-206.39 1194.72,-194.51 1215.63,-184.42"/>
<polygon fill="black" stroke="black" points="1217.16,-187.57 1224.64,-180.07 1214.12,-181.26 1217.16,-187.57"/>
</g>
<!-- [root] var.network_db -->
<g id="node27" class="node">
<title>[root] var.network_db</title>
<polygon fill="none" stroke="black" points="1150.5,-180 1047.5,-180 1047.5,-144 1156.5,-144 1156.5,-174 1150.5,-180"/>
<polyline fill="none" stroke="black" points="1150.5,-180 1150.5,-174 "/>
<polyline fill="none" stroke="black" points="1156.5,-174 1150.5,-174 "/>
<text text-anchor="middle" x="1102" y="-158.3" font-family="Times-Roman" font-size="14.00">var.network_db</text>
</g>
<!-- [root] aws_subnet.db (expand)&#45;&gt;[root] var.network_db -->
<g id="edge37" class="edge">
<title>[root] aws_subnet.db (expand)&#45;&gt;[root] var.network_db</title>
<path fill="none" stroke="black" d="M1111.79,-215.7C1110.35,-207.98 1108.63,-198.71 1107.04,-190.11"/>
<polygon fill="black" stroke="black" points="1110.44,-189.3 1105.18,-180.1 1103.56,-190.58 1110.44,-189.3"/>
</g>
<!-- [root] aws_subnet.http (expand)&#45;&gt;[root] aws_internet_gateway.gw (expand) -->
<g id="edge38" class="edge">
<title>[root] aws_subnet.http (expand)&#45;&gt;[root] aws_internet_gateway.gw (expand)</title>
<path fill="none" stroke="black" d="M1379.35,-215.88C1357.75,-206.31 1330.65,-194.3 1307.73,-184.15"/>
<polygon fill="black" stroke="black" points="1309.09,-180.92 1298.53,-180.07 1306.25,-187.32 1309.09,-180.92"/>
</g>
<!-- [root] var.network_http -->
<g id="node28" class="node">
<title>[root] var.network_http</title>
<polygon fill="none" stroke="black" points="1474.5,-180 1363.5,-180 1363.5,-144 1480.5,-144 1480.5,-174 1474.5,-180"/>
<polyline fill="none" stroke="black" points="1474.5,-180 1474.5,-174 "/>
<polyline fill="none" stroke="black" points="1480.5,-174 1474.5,-174 "/>
<text text-anchor="middle" x="1422" y="-158.3" font-family="Times-Roman" font-size="14.00">var.network_http</text>
</g>
<!-- [root] aws_subnet.http (expand)&#45;&gt;[root] var.network_http -->
<g id="edge39" class="edge">
<title>[root] aws_subnet.http (expand)&#45;&gt;[root] var.network_http</title>
<path fill="none" stroke="black" d="M1418.99,-215.7C1419.43,-207.98 1419.96,-198.71 1420.45,-190.11"/>
<polygon fill="black" stroke="black" points="1423.95,-190.29 1421.02,-180.1 1416.96,-189.89 1423.95,-190.29"/>
</g>
<!-- [root] aws_vpc.terraform (expand)&#45;&gt;[root] provider[&quot;registry.terraform.io/hashicorp/aws&quot;] -->
<g id="edge40" class="edge">
<title>[root] aws_vpc.terraform (expand)&#45;&gt;[root] provider[&quot;registry.terraform.io/hashicorp/aws&quot;]</title>
<path fill="none" stroke="black" d="M744.8,-76.16C684.86,-64.17 595.45,-46.29 532.63,-33.73"/>
<polygon fill="black" stroke="black" points="533.28,-30.29 522.79,-31.76 531.91,-37.15 533.28,-30.29"/>
</g>
<!-- [root] var.vpc_cidr -->
<g id="node29" class="node">
<title>[root] var.vpc_cidr</title>
<polygon fill="none" stroke="black" points="847.5,-36 764.5,-36 764.5,0 853.5,0 853.5,-30 847.5,-36"/>
<polyline fill="none" stroke="black" points="847.5,-36 847.5,-30 "/>
<polyline fill="none" stroke="black" points="853.5,-30 847.5,-30 "/>
<text text-anchor="middle" x="809" y="-14.3" font-family="Times-Roman" font-size="14.00">var.vpc_cidr</text>
</g>
<!-- [root] aws_vpc.terraform (expand)&#45;&gt;[root] var.vpc_cidr -->
<g id="edge41" class="edge">
<title>[root] aws_vpc.terraform (expand)&#45;&gt;[root] var.vpc_cidr</title>
<path fill="none" stroke="black" d="M809,-71.7C809,-63.98 809,-54.71 809,-46.11"/>
<polygon fill="black" stroke="black" points="812.5,-46.1 809,-36.1 805.5,-46.1 812.5,-46.1"/>
</g>
<!-- [root] data.aws_ami.ubuntu (expand)&#45;&gt;[root] provider[&quot;registry.terraform.io/hashicorp/aws&quot;] -->
<g id="edge42" class="edge">
<title>[root] data.aws_ami.ubuntu (expand)&#45;&gt;[root] provider[&quot;registry.terraform.io/hashicorp/aws&quot;]</title>
<path fill="none" stroke="black" d="M302.62,-215.85C332.69,-178 404.79,-87.24 439.58,-43.45"/>
<polygon fill="black" stroke="black" points="442.53,-45.36 446.01,-35.35 437.05,-41 442.53,-45.36"/>
</g>
<!-- [root] output.db_ip (expand) -->
<g id="node30" class="node">
<title>[root] output.db_ip (expand)</title>
<ellipse fill="none" stroke="black" cx="296" cy="-450" rx="118.88" ry="18"/>
<text text-anchor="middle" x="296" y="-446.3" font-family="Times-Roman" font-size="14.00">[root] output.db_ip (expand)</text>
</g>
<!-- [root] output.db_ip (expand)&#45;&gt;[root] aws_instance.db (expand) -->
<g id="edge43" class="edge">
<title>[root] output.db_ip (expand)&#45;&gt;[root] aws_instance.db (expand)</title>
<path fill="none" stroke="black" d="M311.2,-431.87C333.34,-406.92 374.57,-360.45 400.02,-331.77"/>
<polygon fill="black" stroke="black" points="402.73,-333.99 406.75,-324.19 397.49,-329.35 402.73,-333.99"/>
</g>
<!-- [root] output.http_ip (expand) -->
<g id="node31" class="node">
<title>[root] output.http_ip (expand)</title>
<ellipse fill="none" stroke="black" cx="557" cy="-450" rx="124.28" ry="18"/>
<text text-anchor="middle" x="557" y="-446.3" font-family="Times-Roman" font-size="14.00">[root] output.http_ip (expand)</text>
</g>
<!-- [root] output.http_ip (expand)&#45;&gt;[root] aws_instance.http (expand) -->
<g id="edge44" class="edge">
<title>[root] output.http_ip (expand)&#45;&gt;[root] aws_instance.http (expand)</title>
<path fill="none" stroke="black" d="M636.62,-436.14C705.1,-424.44 794.89,-407.31 808,-396 825.98,-380.49 834.17,-354.24 837.9,-334.26"/>
<polygon fill="black" stroke="black" points="841.39,-334.61 839.51,-324.19 834.48,-333.51 841.39,-334.61"/>
</g>
<!-- [root] output.lb_hostname_db (expand) -->
<g id="node32" class="node">
<title>[root] output.lb_hostname_db (expand)</title>
<ellipse fill="none" stroke="black" cx="862" cy="-450" rx="163.27" ry="18"/>
<text text-anchor="middle" x="862" y="-446.3" font-family="Times-Roman" font-size="14.00">[root] output.lb_hostname_db (expand)</text>
</g>
<!-- [root] output.lb_hostname_db (expand)&#45;&gt;[root] aws_lb.db (expand) -->
<g id="edge45" class="edge">
<title>[root] output.lb_hostname_db (expand)&#45;&gt;[root] aws_lb.db (expand)</title>
<path fill="none" stroke="black" d="M863.45,-431.84C865.78,-412.79 871.77,-381.86 887,-360 895.28,-348.11 907.12,-337.89 918.85,-329.68"/>
<polygon fill="black" stroke="black" points="920.92,-332.51 927.33,-324.07 917.06,-326.67 920.92,-332.51"/>
</g>
<!-- [root] output.lb_hostname_http (expand) -->
<g id="node33" class="node">
<title>[root] output.lb_hostname_http (expand)</title>
<ellipse fill="none" stroke="black" cx="1711" cy="-450" rx="168.17" ry="18"/>
<text text-anchor="middle" x="1711" y="-446.3" font-family="Times-Roman" font-size="14.00">[root] output.lb_hostname_http (expand)</text>
</g>
<!-- [root] output.lb_hostname_http (expand)&#45;&gt;[root] aws_lb.http (expand) -->
<g id="edge46" class="edge">
<title>[root] output.lb_hostname_http (expand)&#45;&gt;[root] aws_lb.http (expand)</title>
<path fill="none" stroke="black" d="M1711,-431.87C1711,-407.67 1711,-363.21 1711,-334.39"/>
<polygon fill="black" stroke="black" points="1714.5,-334.19 1711,-324.19 1707.5,-334.19 1714.5,-334.19"/>
</g>
<!-- [root] provider[&quot;registry.terraform.io/hashicorp/aws&quot;] (close) -->
<g id="node34" class="node">
<title>[root] provider[&quot;registry.terraform.io/hashicorp/aws&quot;] (close)</title>
<ellipse fill="none" stroke="black" cx="1284" cy="-450" rx="241.26" ry="18"/>
<text text-anchor="middle" x="1284" y="-446.3" font-family="Times-Roman" font-size="14.00">[root] provider[&quot;registry.terraform.io/hashicorp/aws&quot;] (close)</text>
</g>
<!-- [root] provider[&quot;registry.terraform.io/hashicorp/aws&quot;] (close)&#45;&gt;[root] aws_eip.public_http (expand) -->
<g id="edge47" class="edge">
<title>[root] provider[&quot;registry.terraform.io/hashicorp/aws&quot;] (close)&#45;&gt;[root] aws_eip.public_http (expand)</title>
<path fill="none" stroke="black" d="M1242.8,-432.23C1219.01,-422.55 1188.87,-410.28 1163.52,-399.97"/>
<polygon fill="black" stroke="black" points="1164.64,-396.64 1154.06,-396.12 1162,-403.13 1164.64,-396.64"/>
</g>
<!-- [root] provider[&quot;registry.terraform.io/hashicorp/aws&quot;] (close)&#45;&gt;[root] aws_lb_listener.db (expand) -->
<g id="edge48" class="edge">
<title>[root] provider[&quot;registry.terraform.io/hashicorp/aws&quot;] (close)&#45;&gt;[root] aws_lb_listener.db (expand)</title>
<path fill="none" stroke="black" d="M1207.11,-432.91C1157.87,-422.53 1092.63,-408.66 1035,-396 1034.67,-395.93 1034.34,-395.85 1034.01,-395.78"/>
<polygon fill="black" stroke="black" points="1034.74,-392.36 1024.22,-393.62 1033.23,-399.19 1034.74,-392.36"/>
</g>
<!-- [root] provider[&quot;registry.terraform.io/hashicorp/aws&quot;] (close)&#45;&gt;[root] aws_lb_listener.http (expand) -->
<g id="edge49" class="edge">
<title>[root] provider[&quot;registry.terraform.io/hashicorp/aws&quot;] (close)&#45;&gt;[root] aws_lb_listener.http (expand)</title>
<path fill="none" stroke="black" d="M1361.84,-432.92C1409.45,-423.03 1471.87,-409.97 1536.09,-396.19"/>
<polygon fill="black" stroke="black" points="1536.95,-399.58 1545.99,-394.06 1535.48,-392.74 1536.95,-399.58"/>
</g>
<!-- [root] provider[&quot;registry.terraform.io/hashicorp/aws&quot;] (close)&#45;&gt;[root] aws_lb_target_group_attachment.db (expand) -->
<g id="edge50" class="edge">
<title>[root] provider[&quot;registry.terraform.io/hashicorp/aws&quot;] (close)&#45;&gt;[root] aws_lb_target_group_attachment.db (expand)</title>
<path fill="none" stroke="black" d="M1159.58,-434.58C1057.15,-422.71 912.44,-405.94 808.82,-393.93"/>
<polygon fill="black" stroke="black" points="808.94,-390.42 798.6,-392.75 808.13,-397.37 808.94,-390.42"/>
</g>
<!-- [root] provider[&quot;registry.terraform.io/hashicorp/aws&quot;] (close)&#45;&gt;[root] aws_lb_target_group_attachment.http (expand) -->
<g id="edge51" class="edge">
<title>[root] provider[&quot;registry.terraform.io/hashicorp/aws&quot;] (close)&#45;&gt;[root] aws_lb_target_group_attachment.http (expand)</title>
<path fill="none" stroke="black" d="M1313.29,-432.05C1329.37,-422.75 1349.5,-411.11 1366.81,-401.1"/>
<polygon fill="black" stroke="black" points="1368.66,-404.07 1375.56,-396.03 1365.15,-398.01 1368.66,-404.07"/>
</g>
<!-- [root] provider[&quot;registry.terraform.io/hashicorp/aws&quot;] (close)&#45;&gt;[root] aws_route_table_association.db (expand) -->
<g id="edge52" class="edge">
<title>[root] provider[&quot;registry.terraform.io/hashicorp/aws&quot;] (close)&#45;&gt;[root] aws_route_table_association.db (expand)</title>
<path fill="none" stroke="black" d="M1266.58,-431.78C1247.86,-413.48 1217,-383.94 1189,-360 1177.28,-349.98 1163.99,-339.44 1152.28,-330.43"/>
<polygon fill="black" stroke="black" points="1154.15,-327.45 1144.08,-324.16 1149.9,-333.02 1154.15,-327.45"/>
</g>
<!-- [root] provider[&quot;registry.terraform.io/hashicorp/aws&quot;] (close)&#45;&gt;[root] aws_route_table_association.http (expand) -->
<g id="edge53" class="edge">
<title>[root] provider[&quot;registry.terraform.io/hashicorp/aws&quot;] (close)&#45;&gt;[root] aws_route_table_association.http (expand)</title>
<path fill="none" stroke="black" d="M1276.53,-431.84C1269.57,-413.07 1261.93,-382.64 1274,-360 1280.69,-347.45 1291.82,-337.35 1303.64,-329.47"/>
<polygon fill="black" stroke="black" points="1305.64,-332.34 1312.32,-324.12 1301.97,-326.39 1305.64,-332.34"/>
</g>
<!-- [root] root -->
<g id="node35" class="node">
<title>[root] root</title>
<ellipse fill="none" stroke="black" cx="862" cy="-522" rx="48.19" ry="18"/>
<text text-anchor="middle" x="862" y="-518.3" font-family="Times-Roman" font-size="14.00">[root] root</text>
</g>
<!-- [root] root&#45;&gt;[root] output.db_ip (expand) -->
<g id="edge54" class="edge">
<title>[root] root&#45;&gt;[root] output.db_ip (expand)</title>
<path fill="none" stroke="black" d="M816.9,-515.72C737.46,-506.37 567.43,-486.2 424,-468 413.53,-466.67 402.58,-465.26 391.68,-463.83"/>
<polygon fill="black" stroke="black" points="392.07,-460.35 381.7,-462.52 391.16,-467.29 392.07,-460.35"/>
</g>
<!-- [root] root&#45;&gt;[root] output.http_ip (expand) -->
<g id="edge55" class="edge">
<title>[root] root&#45;&gt;[root] output.http_ip (expand)</title>
<path fill="none" stroke="black" d="M822.13,-511.85C773.49,-500.69 690.31,-481.6 630.07,-467.77"/>
<polygon fill="black" stroke="black" points="630.76,-464.34 620.23,-465.51 629.19,-471.16 630.76,-464.34"/>
</g>
<!-- [root] root&#45;&gt;[root] output.lb_hostname_db (expand) -->
<g id="edge56" class="edge">
<title>[root] root&#45;&gt;[root] output.lb_hostname_db (expand)</title>
<path fill="none" stroke="black" d="M862,-503.7C862,-495.98 862,-486.71 862,-478.11"/>
<polygon fill="black" stroke="black" points="865.5,-478.1 862,-468.1 858.5,-478.1 865.5,-478.1"/>
</g>
<!-- [root] root&#45;&gt;[root] output.lb_hostname_http (expand) -->
<g id="edge57" class="edge">
<title>[root] root&#45;&gt;[root] output.lb_hostname_http (expand)</title>
<path fill="none" stroke="black" d="M908.87,-517.58C1018.34,-509.53 1299.37,-488.52 1534,-468 1549.26,-466.67 1565.26,-465.21 1581.13,-463.73"/>
<polygon fill="black" stroke="black" points="1581.91,-467.17 1591.54,-462.75 1581.25,-460.2 1581.91,-467.17"/>
</g>
<!-- [root] root&#45;&gt;[root] provider[&quot;registry.terraform.io/hashicorp/aws&quot;] (close) -->
<g id="edge58" class="edge">
<title>[root] root&#45;&gt;[root] provider[&quot;registry.terraform.io/hashicorp/aws&quot;] (close)</title>
<path fill="none" stroke="black" d="M905.18,-513.84C969.3,-503.2 1091.6,-482.91 1179.93,-468.26"/>
<polygon fill="black" stroke="black" points="1180.69,-471.68 1189.99,-466.59 1179.55,-464.78 1180.69,-471.68"/>
</g>
</g>
</svg>
